<svg viewBox="0 0 400 300" xmlns="http://www.w3.org/2000/svg"><path d="m292 169c-.29.23-11 32.59-31.29 37-14 3-30.92-2.48-30.92-2.48v41.48h-58.31v-45c-2.15 1.42-12.42 9.86-25.48 8.85a70.92 70.92 0 0 1 -25.38-6.31 29.91 29.91 0 0 1 -13.41-12.67l9.13-13.18c5.67 4.51 23.13 15.35 35.56 11.29a32.88 32.88 0 0 0 16.4-12.15 29.67 29.67 0 0 1 18.32-11.22 23.38 23.38 0 0 1 3.26-.23h21.44a23.53 23.53 0 0 1 3.27.23c15.14 0 27.1 22.54 42.3 21.22 13-1.12 18.43-22.51 18.43-22.51z" fill="#68e1fd"/><path d="m229.74 246h-58.26a1 1 0 0 1 -1-1v-43c-3.83 2.7-13.2 8.8-24.55 7.92a71.57 71.57 0 0 1 -25.73-6.4 30.32 30.32 0 0 1 -13.57-12.63l-.18-.31a1 1 0 0 1 -.06-1.21l9.13-13.18a1 1 0 0 1 .68-.42 1.07 1.07 0 0 1 .77.21c5.56 4.42 22.62 15 34.62 11.12 6.41-2.1 11.41-5.84 15.91-11.8a30.61 30.61 0 0 1 18.94-11.6h.1a23.7 23.7 0 0 1 3.35-.24h21.44a25 25 0 0 1 3.34.23c7.7 0 14.53 5.56 21.15 10.89 7 5.65 13.59 11 21 10.34 12.16-1.06 17.49-21.56 17.54-21.76a1.05 1.05 0 0 1 .49-.64 1 1 0 0 1 .8-.07l16.62 5.65a1 1 0 0 1 .66.77 1 1 0 0 1 -.12.69c-.05.11-.15.36-.29.72-4.76 12.18-15.21 33.16-31.65 36.69-12 2.58-25.84-.88-30.13-2.1v40.13a1 1 0 0 1 -1 1zm-57.26-2h56.26v-40.49a1 1 0 0 1 1.31-.95c.17.06 16.87 5.36 30.4 2.45 15.48-3.33 25.53-23.54 30.17-35.37l-14.61-5c-1.3 4.44-7 21.18-19 22.22-8.2.71-15.43-5.13-22.43-10.77-6.36-5.14-12.94-10.45-20-10.45h-.14a23.53 23.53 0 0 0 -3.13-.22h-21.42a23.61 23.61 0 0 0 -3.12.22 28.55 28.55 0 0 0 -17.67 10.86 33.86 33.86 0 0 1 -16.89 12.5c-12.27 4-29.11-5.89-35.64-10.8l-8.16 11.8a28.33 28.33 0 0 0 12.64 11.74 69.73 69.73 0 0 0 25 6.22c11.42.88 20.87-5.86 24-8.07l.88-.62a1 1 0 0 1 1.55.83z" fill="#093f68"/><rect fill="#093f68" height="98.19" rx="2.14" transform="matrix(.99317065 -.11667074 .11667074 .99317065 -18.61 13.98)" width="4.28" x="107.94" y="116.79"/><path d="m115.56 215.66a3.13 3.13 0 0 1 -3.11-2.77l-11-93.27a3.14 3.14 0 0 1 6.24-.73l11 93.27a3.13 3.13 0 0 1 -2.75 3.48 2.3 2.3 0 0 1 -.38.02zm-10.96-97.54h-.13a1.15 1.15 0 0 0 -1 1.27l11 93.27a1.15 1.15 0 0 0 1.27 1 1.14 1.14 0 0 0 1-1.27l-11-93.27a1.13 1.13 0 0 0 -1.14-1z" fill="#093f68"/><rect fill="#f56132" height="39.89" rx="3.3" transform="matrix(.99317065 -.11667074 .11667074 .99317065 -15.78 13.48)" width="64.96" x="74.74" y="121.54"/><path d="m80.18 165.72a4.3 4.3 0 0 1 -4.27-3.8l-3.89-33a4.32 4.32 0 0 1 3.77-4.78l58-6.81a4.29 4.29 0 0 1 4.77 3.77l3.89 33.06a4.31 4.31 0 0 1 -.9 3.17 4.25 4.25 0 0 1 -2.88 1.6l-57.95 6.81zm54.07-46.47a1.23 1.23 0 0 0 -.27 0l-57.98 6.83a2.3 2.3 0 0 0 -2 2.55l3.88 33.06a2.31 2.31 0 0 0 2.56 2l58-6.81.12 1-.12-1a2.3 2.3 0 0 0 2-2.56l-3.89-33.06a2.31 2.31 0 0 0 -2.28-2z" fill="#093f68"/><path d="m125.79 134.85-23.28 2.74-.82-7-13.57 13.14 16.25 9.64-.83-7 23.28-2.74z" fill="#fff"/><path d="m104.37 154.37a1 1 0 0 1 -.51-.14l-16.25-9.64a1 1 0 0 1 -.48-.74 1 1 0 0 1 .3-.84l13.57-13.14a1 1 0 0 1 1.69.6l.71 6 22.28-2.62a1 1 0 0 1 1.11.88l1 8.78a1 1 0 0 1 -.2.73 1.06 1.06 0 0 1 -.67.38l-22.29 2.62.71 6a1 1 0 0 1 -.45 1 1 1 0 0 1 -.52.13zm-14.61-10.83 13.38 7.94-.59-5a1 1 0 0 1 .88-1.11l22.28-2.62-.8-6.8-22.28 2.62a1 1 0 0 1 -1.11-.87l-.59-5z" fill="#093f68"/><rect fill="#ffc9b0" height="19.2" rx="4.13" transform="matrix(.99317065 -.11667074 .11667074 .99317065 -20.81 14.06)" width="14.92" x="102.21" y="175.14"/><path d="m107 195.69a5.15 5.15 0 0 1 -5.09-4.54l-1.28-10.86a5.14 5.14 0 0 1 4.5-5.69l6.61-.78a5.14 5.14 0 0 1 5.7 4.5l1.28 10.86a5.15 5.15 0 0 1 -4.5 5.7l-6.62.77a4 4 0 0 1 -.6.04zm5.35-19.9a2.3 2.3 0 0 0 -.37 0l-6.62.78a3.13 3.13 0 0 0 -2.74 3.47l1.28 10.86a3.13 3.13 0 0 0 3.47 2.75l6.62-.78a3.14 3.14 0 0 0 2.74-3.48l-1.28-10.86a3.12 3.12 0 0 0 -3.1-2.76z" fill="#093f68"/><rect fill="#ffc9b0" height="11.4" rx="2.6" transform="matrix(.99317065 -.11667074 .11667074 .99317065 -20.35 15.18)" width="5.21" x="116.81" y="175.67"/><path d="m119.77 188.05a3.6 3.6 0 0 1 -3.57-3.18l-.73-6.16a3.6 3.6 0 1 1 7.16-.84l.72 6.15a3.61 3.61 0 0 1 -3.15 4zm-.71-11.36h-.2a1.61 1.61 0 0 0 -1.4 1.78l.72 6.15a1.6 1.6 0 0 0 .6 1.08 1.62 1.62 0 0 0 1.22.3 1.56 1.56 0 0 0 1.07-.6 1.59 1.59 0 0 0 .34-1.18l-.72-6.15a1.59 1.59 0 0 0 -1.59-1.42z" fill="#093f68"/><rect fill="#093f68" height="98.19" rx="2.14" transform="matrix(-.98264519 -.18549511 .18549511 -.98264519 542.69 342.83)" width="4.28" x="285.25" y="96.92"/><path d="m278.68 195.3a3 3 0 0 1 -.59-.06 3.14 3.14 0 0 1 -2.5-3.66l17.41-92.28a3.14 3.14 0 1 1 6.17 1.16l-17.43 92.28a3.13 3.13 0 0 1 -1.32 2 3.08 3.08 0 0 1 -1.74.56zm17.42-96.56a1.15 1.15 0 0 0 -1.12.93l-17.43 92.33a1.15 1.15 0 0 0 .91 1.33 1.19 1.19 0 0 0 .86-.18 1.1 1.1 0 0 0 .47-.73l17.43-92.28a1.14 1.14 0 0 0 -.91-1.33z" fill="#093f68"/><rect fill="#70cc40" height="39.89" rx="3.3" transform="matrix(-.98264519 -.18549511 .18549511 -.98264519 556.21 295.81)" width="64.96" x="259.47" y="101.93"/><path d="m317.54 148a4.45 4.45 0 0 1 -.81-.08l-57.34-10.92a4.3 4.3 0 0 1 -3.43-5l6.18-32.71a4.27 4.27 0 0 1 1.8-2.76 4.34 4.34 0 0 1 3.23-.67l57.33 10.83a4.3 4.3 0 0 1 3.43 5l-6.17 32.71a4.32 4.32 0 0 1 -4.22 3.51zm-57.78-12.87 57.34 10.83a2.3 2.3 0 0 0 1.73-.37 2.28 2.28 0 0 0 1-1.47l6.17-32.76a2.32 2.32 0 0 0 -1.84-2.69l-57.37-10.83a2.33 2.33 0 0 0 -2.69 1.84l-6.17 32.71a2.31 2.31 0 0 0 1.83 2.69z" fill="#093f68"/><path d="m273.88 113.96 23.03 4.35 1.31-6.92 12.62 14.05-16.88 8.49 1.31-6.93-23.03-4.35z" fill="#fff"/><path d="m294 134.93a1 1 0 0 1 -.6-.2 1 1 0 0 1 -.38-1l1.12-5.94-22.05-4.17a1 1 0 0 1 -.79-1.16l1.64-8.69a1 1 0 0 1 .42-.64 1 1 0 0 1 .74-.16l22.05 4.17 1.13-6a1 1 0 0 1 .71-.78 1 1 0 0 1 1 .3l12.62 14a1 1 0 0 1 .24.86 1 1 0 0 1 -.53.71l-16.88 8.48a1 1 0 0 1 -.44.22zm-20.55-13.08 22 4.17a1 1 0 0 1 .79 1.17l-.93 4.94 13.9-7-10.39-11.58-.94 4.94a1 1 0 0 1 -1.17.8l-22-4.17z" fill="#093f68"/><rect fill="#ffc9b0" height="19.2" rx="4.13" transform="matrix(-.98264519 -.18549511 .18549511 -.98264519 537.4 380)" width="14.92" x="279.02" y="155.25"/><path d="m288.75 176a5.2 5.2 0 0 1 -1-.09l-6.55-1.23a5.15 5.15 0 0 1 -4.09-6l2-10.74a5.13 5.13 0 0 1 6-4.09l6.54 1.23a5.13 5.13 0 0 1 4.09 6l-2 10.74a5.12 5.12 0 0 1 -5 4.18zm-7.14-3.29 6.55 1.24a3.14 3.14 0 0 0 3.66-2.5l2-10.74a3.13 3.13 0 0 0 -2.5-3.66l-6.54-1.24a3.14 3.14 0 0 0 -2.35.49 3.1 3.1 0 0 0 -1.31 2l-2 10.74a3.14 3.14 0 0 0 2.49 3.66z" fill="#093f68"/><rect fill="#ffc9b0" height="11.4" rx="2.6" transform="matrix(-.98264519 -.18549511 .18549511 -.98264519 519.35 370.24)" width="5.21" x="274.4" y="155.11"/><path d="m276.43 167.46a3.79 3.79 0 0 1 -.67-.06 3.62 3.62 0 0 1 -2.88-4.21l1.12-6.09a3.6 3.6 0 0 1 4.21-2.87 3.61 3.61 0 0 1 2.88 4.21l-1.09 6.08a3.62 3.62 0 0 1 -3.57 2.94zm1.15-11.29a1.6 1.6 0 0 0 -1.58 1.3l-1.15 6.09a1.6 1.6 0 0 0 1.28 1.87 1.6 1.6 0 0 0 1.87-1.28l1.15-6.08a1.6 1.6 0 0 0 -1.28-1.88 1.46 1.46 0 0 0 -.29-.02z" fill="#093f68"/><path d="m181.65 57.2c9.92-2.75 20.5-3.17 30.38-.05 8.97 2.85 16.13 8.95 25.97 9.68 3.49.26 7.28-.11 9.94-2.37-.22.19 0 11.35-8 17.46 0 0 2.16 5.76 2.86 8.25 1.27 4.53 1.79 7.32 1.66 14.4 0 2 2.15 18.52-.47 18.92l-3.88.59-49.12 7.52-26.14 4c-1.77.27-4 1.24-5.79 1-2.49-.32-5-3.44-6.55-5.21-4.06-4.71-6.73-10.5-8.72-16.34a100.81 100.81 0 0 1 -3.79-14.35c-.72-4-1.18-8.22.5-11.88s6.23-6.28 9.86-4.53c-.17-3.67 2.55-7.18 4.78-10a49.21 49.21 0 0 1 6.35-6.56 50.57 50.57 0 0 1 15.23-9c1.56-.52 3.22-1.06 4.93-1.53z" fill="#725858"/><path d="m159.53 137.67c-.22 0-.45 0-.67 0-2.71-.34-5.21-3.26-6.87-5.19l-.3-.36c-3.63-4.2-6.47-9.5-8.92-16.67a101.42 101.42 0 0 1 -3.77-14.57c-.76-4.17-1.22-8.56.57-12.48a10.27 10.27 0 0 1 5.63-5.19 7.35 7.35 0 0 1 4.2-.3c.46-3.62 3.11-6.93 4.94-9.21a49.89 49.89 0 0 1 6.46-6.7 51.25 51.25 0 0 1 15.54-9.15c1.63-.6 3.33-1.15 5-1.63 10.84-3 21.54-3 31 0a71 71 0 0 1 10 4.3c5.09 2.52 9.91 4.91 15.74 5.34 4.1.3 7.2-.41 9.22-2.13a1 1 0 0 1 1.41.11 1 1 0 0 1 .19 1c0 .1 0 .26-.05.48-.69 7.6-3.3 13.32-7.75 17 .6 1.61 2.07 5.63 2.63 7.65 1.25 4.46 1.83 7.36 1.7 14.69 0 .39.1 1.59.22 3 1.1 12.6.74 16.55-1.54 16.9l-79.14 12.11a18.21 18.21 0 0 0 -1.9.45 14 14 0 0 1 -3.54.55zm-11.69-52.94a5.77 5.77 0 0 0 -2 .37 8.19 8.19 0 0 0 -4.49 4.13c-1.56 3.42-1.13 7.44-.42 11.29a100.13 100.13 0 0 0 3.71 14.25c2.37 6.92 5.08 12 8.54 16l.31.35c1.37 1.6 3.66 4.27 5.6 4.51a9.87 9.87 0 0 0 3.41-.54 21.23 21.23 0 0 1 2.11-.48l79-12.1c.75-.94.74-5.91 0-14.77-.15-1.63-.24-2.7-.23-3.19.13-7.1-.4-9.76-1.62-14.12-.68-2.42-2.82-8.11-2.84-8.17a1 1 0 0 1 .33-1.15c4.06-3.08 6.55-8 7.41-14.65a16.49 16.49 0 0 1 -8.77 1.36c-6.23-.47-11.45-3-16.49-5.55a68.57 68.57 0 0 0 -9.68-4.18c-9-2.85-19.35-2.83-29.81.06-1.67.46-3.31 1-4.89 1.58a49.48 49.48 0 0 0 -14.93 8.79 48.3 48.3 0 0 0 -6.21 6.48c-1.88 2.35-4.72 5.89-4.56 9.3a1 1 0 0 1 -.45.88 1 1 0 0 1 -1 .06 4.71 4.71 0 0 0 -2.03-.51z" fill="#093f68"/><path d="m194.17 165.43v-7.96h13.84v7.96" fill="#ffc9b0"/><path d="m208 166.43a1 1 0 0 1 -1-1v-7h-11.83v7a1 1 0 0 1 -2 0v-8a1 1 0 0 1 1-1h13.83a1 1 0 0 1 1 1v8a1 1 0 0 1 -1 1z" fill="#093f68"/><ellipse cx="158.49" cy="129" fill="#ffc9b0" rx="13.45" ry="11.59" transform="matrix(.98665754 -.16280937 .16280937 .98665754 -18.88 27.51)"/><path d="m157.82 141.64a15.14 15.14 0 0 1 -7.9-2.16 11.76 11.76 0 0 1 -5.68-8.13c-1.13-6.85 4.34-13.48 12.2-14.77s15.17 3.22 16.3 10.06a11.72 11.72 0 0 1 -2.77 9.53 15.46 15.46 0 0 1 -9.43 5.24 16.74 16.74 0 0 1 -2.72.23zm1.32-23.29a14.77 14.77 0 0 0 -2.37.2c-6.77 1.12-11.51 6.71-10.56 12.47a9.79 9.79 0 0 0 4.75 6.75 14 14 0 0 0 17.48-2.88 9.77 9.77 0 0 0 2.33-7.92c-.84-5.08-5.77-8.62-11.63-8.62z" fill="#093f68"/><ellipse cx="235.84" cy="116.24" fill="#ffc9b0" rx="13.45" ry="11.59" transform="matrix(.98665754 -.16280937 .16280937 .98665754 -15.77 39.93)"/><path d="m235.17 128.88a15.14 15.14 0 0 1 -7.9-2.16 11.48 11.48 0 0 1 -2.92-17.66 16 16 0 0 1 20.05-3.31 11.5 11.5 0 0 1 2.92 17.67 15.61 15.61 0 0 1 -9.44 5.24 16.69 16.69 0 0 1 -2.71.22zm1.34-23.29a15.14 15.14 0 0 0 -2.4.2 13.53 13.53 0 0 0 -8.22 4.55 9.51 9.51 0 0 0 2.42 14.66 14 14 0 0 0 17.47-2.89 9.8 9.8 0 0 0 2.34-7.92 9.8 9.8 0 0 0 -4.76-6.75 13.09 13.09 0 0 0 -6.85-1.85z" fill="#093f68"/><path d="m203.66 159.82a40.55 40.55 0 0 1 -46.61-33.41l-2.4-14.55c-1.67-10.09.67-17.67 9.16-19.46 8.34-1.76 30.92 7.31 44.93 5.25 5.77-.85 22.68-11.1 24.84-.9l3.5 16.46a40.56 40.56 0 0 1 -33.42 46.61z" fill="#ffc9b0"/><g fill="#093f68"><path d="m197 161.37a41.58 41.58 0 0 1 -40.91-34.8l-2.43-14.57c-1.93-11.7 1.51-18.83 9.94-20.61 4-.85 10.75.6 18.54 2.26 8.91 1.91 19 4.08 26.45 3a36.64 36.64 0 0 0 6.06-2c5.67-2.15 12.73-4.83 16.87-2.56a6.2 6.2 0 0 1 3 4.41l3.53 16.5a41.54 41.54 0 0 1 -34.23 47.81 42.77 42.77 0 0 1 -6.82.56zm-30.61-68.2a10.93 10.93 0 0 0 -2.34.21c-7.31 1.54-10.13 7.71-8.38 18.32l2.4 14.54a39.55 39.55 0 0 0 45.46 32.59 39.55 39.55 0 0 0 32.59-45.46l-3.51-16.37a4.28 4.28 0 0 0 -2-3.08c-3.34-1.82-10.2.78-15.21 2.68a36.9 36.9 0 0 1 -6.48 2.08c-7.8 1.15-18.08-1.06-27.16-3-5.94-1.3-11.57-2.51-15.4-2.51z"/><circle cx="181.49" cy="123.13" r="3.55"/><circle cx="220.11" cy="114.92" r="3.55"/><path d="m196.22 133.19h-.08a1 1 0 0 1 0-2 16.54 16.54 0 0 0 5.27-.84c.15-1-1.82-4.59-4.33-7.93a1 1 0 1 1 1.6-1.2c1.25 1.67 5.29 7.29 4.64 9.71a1.78 1.78 0 0 1 -1 1.22 18 18 0 0 1 -6.1 1.04z"/><path d="m169.75 116.51a1.59 1.59 0 0 1 -.17-3.17l16.42-1.75a1.59 1.59 0 1 1 .33 3.16l-16.37 1.75z"/><path d="m210.12 112.93a1.59 1.59 0 0 1 -.65-3l15-6.73a1.59 1.59 0 0 1 1.3 2.9l-15 6.73a1.65 1.65 0 0 1 -.65.1z"/><path d="m187.29 146.55a1 1 0 0 1 -.08-2c.14 0 15-1.36 25.92-4.28a1 1 0 0 1 1.22.71 1 1 0 0 1 -.7 1.22c-11.09 3-26.12 4.32-26.27 4.34z"/></g><path d="m213.96 164.46-6.93 41.14-5.59 33.2-6.56-34.39-7.62-39.95z" fill="#fff"/><path d="m201.44 239.8a1 1 0 0 1 -1-.82l-14.18-74.34a1 1 0 0 1 1-1.18h26.74a1 1 0 0 1 .77.35 1 1 0 0 1 .22.81l-12.56 74.38a1 1 0 0 1 -1 .84zm-13-74.34 12.91 67.68 11.4-67.68z" fill="#093f68"/><path d="m206.78 205.6-5.59 33.2-6.56-34.39 4.22-36.74.07-.59v-.02h2.88v.02l.07.59z" fill="#ffbc0e"/><path d="m201.19 239.8a1 1 0 0 1 -1-.82l-6.56-34.39a1 1 0 0 1 0-.3l4.3-37.29a1 1 0 0 1 1-.91h2.88a1 1 0 0 1 1 1l.06.49 4.91 37.92a.94.94 0 0 1 0 .29l-5.6 33.21a1 1 0 0 1 -1 .84zm-5.55-35.43 5.49 28.77 4.64-27.56-4.86-37.52h-1.1z" fill="#093f68"/><rect fill="#ffbc0e" height="11.04" rx="2.91" width="11.63" x="194.44" y="165.06"/><path d="m203.17 177.1h-5.82a3.92 3.92 0 0 1 -3.91-3.91v-5.19a3.92 3.92 0 0 1 3.91-3.91h5.82a3.92 3.92 0 0 1 3.91 3.91v5.23a3.91 3.91 0 0 1 -3.91 3.87zm-5.82-11a1.92 1.92 0 0 0 -1.91 1.91v5.23a1.92 1.92 0 0 0 1.91 1.91h5.82a1.92 1.92 0 0 0 1.91-1.91v-5.24a1.92 1.92 0 0 0 -1.91-1.91z" fill="#093f68"/><path d="m171.48 204.51a1 1 0 0 1 -1-1v-16.46a1 1 0 0 1 2 0v16.46a1 1 0 0 1 -1 1z" fill="#093f68"/><path d="m229.74 204.51a1 1 0 0 1 -1-1v-16.46a1 1 0 0 1 2 0v16.46a1 1 0 0 1 -1 1z" fill="#093f68"/></svg>